<svg width="24" height="24" viewBox="0 0 24 24" fill="none" xmlns="http://www.w3.org/2000/svg">
<path d="M9.92043 11.9204C8.69387 11.9204 7.64386 11.4837 6.7704 10.6102C5.89695 9.73678 5.46022 8.68677 5.46022 7.46021C5.46022 6.23365 5.89695 5.18365 6.7704 4.31019C7.64386 3.43673 8.69387 3 9.92043 3C11.147 3 12.197 3.43673 13.0705 4.31019C13.9439 5.18365 14.3806 6.23365 14.3806 7.46021C14.3806 8.68677 13.9439 9.73678 13.0705 10.6102C12.197 11.4837 11.147 11.9204 9.92043 11.9204ZM2.11506 20.8408C1.79913 20.8408 1.53411 20.7338 1.32002 20.5197C1.10593 20.3056 0.99926 20.041 1 19.7258V17.7187C1 17.1054 1.15797 16.5293 1.4739 15.9904C1.78983 15.4514 2.22656 15.0426 2.78409 14.7638C3.73188 14.2806 4.80048 13.8718 5.98987 13.5373C7.17926 13.2027 8.48944 13.0355 9.92043 13.0355H10.3107C10.4222 13.0355 10.5337 13.0541 10.6452 13.0912C10.4965 13.4257 10.3709 13.7744 10.2683 14.1371C10.1657 14.4999 10.0869 14.8761 10.0319 15.2656C9.93901 15.9346 9.91114 16.497 9.9483 16.9527C9.98547 17.4083 10.0877 17.961 10.2549 18.6107C10.3665 19.001 10.5151 19.3868 10.701 19.7682C10.8868 20.1495 11.0912 20.5071 11.3142 20.8408H2.11506ZM17.7258 18.6107C18.3391 18.6107 18.8643 18.3922 19.3014 17.9551C19.7385 17.518 19.9566 16.9932 19.9559 16.3806C19.9559 15.7674 19.7374 15.2422 19.3003 14.8051C18.8632 14.368 18.3383 14.1498 17.7258 14.1505C17.1125 14.1505 16.5873 14.3691 16.1502 14.8062C15.7131 15.2433 15.495 15.7681 15.4957 16.3806C15.4957 16.9939 15.7142 17.5191 16.1513 17.9562C16.5884 18.3933 17.1133 18.6115 17.7258 18.6107ZM16.2762 20.2833C16.0532 20.1904 15.844 20.0926 15.6485 19.9901C15.453 19.8875 15.2534 19.7622 15.0497 19.6143L13.851 19.9767C13.7209 20.0139 13.6001 20.009 13.4886 19.9622C13.3771 19.9154 13.2842 19.8366 13.2098 19.7258L12.5408 18.6107C12.4665 18.4992 12.4434 18.3784 12.4717 18.2484C12.4999 18.1183 12.5694 18.0068 12.6802 17.9138L13.6001 17.1054C13.5629 16.8452 13.5444 16.6036 13.5444 16.3806C13.5444 16.1576 13.5629 15.916 13.6001 15.6559L12.6802 14.8474C12.5687 14.7545 12.4992 14.643 12.4717 14.5129C12.4442 14.3828 12.4672 14.262 12.5408 14.1505L13.2098 13.0355C13.2842 12.924 13.3771 12.8452 13.4886 12.7991C13.6001 12.753 13.7209 12.7482 13.851 12.7846L15.0497 13.147C15.2541 12.9983 15.4541 12.8731 15.6496 12.7712C15.8451 12.6694 16.054 12.5716 16.2762 12.478L16.5271 11.2514C16.5643 11.1213 16.6293 11.0143 16.7223 10.9303C16.8152 10.8463 16.9267 10.8046 17.0568 10.8054H18.3948C18.5249 10.8054 18.6364 10.8474 18.7293 10.9314C18.8223 11.0154 18.8873 11.122 18.9245 11.2514L19.1754 12.478C19.3984 12.5709 19.6076 12.6731 19.8031 12.7846C19.9987 12.8961 20.1982 13.0355 20.4019 13.2027L21.5727 12.7846C21.7028 12.7288 21.8285 12.7288 21.9496 12.7846C22.0708 12.8403 22.1682 12.924 22.2418 13.0355L22.9108 14.2063C22.9851 14.3178 23.013 14.4386 22.9944 14.5687C22.9758 14.6988 22.9108 14.8103 22.7993 14.9032L21.8515 15.7116C21.8887 15.9346 21.9072 16.1669 21.9072 16.4085C21.9072 16.6501 21.8887 16.8824 21.8515 17.1054L22.7714 17.9138C22.8829 18.0068 22.9528 18.1183 22.981 18.2484C23.0093 18.3784 22.9859 18.4992 22.9108 18.6107L22.2418 19.7258C22.1674 19.8373 22.0745 19.9165 21.963 19.9633C21.8515 20.0101 21.7307 20.0146 21.6006 19.9767L20.4019 19.6143C20.1975 19.763 19.9979 19.8886 19.8031 19.9912C19.6084 20.0938 19.3991 20.1911 19.1754 20.2833L18.9245 21.5099C18.8873 21.64 18.8223 21.747 18.7293 21.831C18.6364 21.915 18.5249 21.9566 18.3948 21.9559H17.0568C16.9267 21.9559 16.8152 21.9143 16.7223 21.831C16.6293 21.7478 16.5643 21.6407 16.5271 21.5099L16.2762 20.2833Z" fill="#24ACC3"/>
</svg>
