<svg width="24" height="24" viewBox="0 0 24 24" fill="none" xmlns="http://www.w3.org/2000/svg">
<path fill-rule="evenodd" clip-rule="evenodd" d="M13.1509 3.13702C12.8176 3 12.3951 3 11.55 3C10.7049 3 10.2823 3 9.94908 3.13702C9.50466 3.31971 9.15158 3.67012 8.9675 4.11117C8.88347 4.31251 8.85058 4.54665 8.83771 4.88819C8.8188 5.39011 8.55944 5.8547 8.12115 6.10584C7.68286 6.35696 7.14777 6.34759 6.70034 6.11288C6.39586 5.95317 6.1751 5.86436 5.95739 5.83592C5.48048 5.7736 4.99816 5.90186 4.61654 6.19248C4.33032 6.41044 4.11905 6.77361 3.69651 7.49994C3.27397 8.22627 3.0627 8.58943 3.01561 8.94442C2.95282 9.41772 3.08206 9.89639 3.37489 10.2751C3.50855 10.448 3.69639 10.5933 3.98793 10.7751C4.41652 11.0424 4.69229 11.4977 4.69226 12C4.69223 12.5023 4.41647 12.9575 3.98793 13.2247C3.69635 13.4066 3.50847 13.552 3.3748 13.7248C3.08197 14.1036 2.95274 14.5822 3.01552 15.0555C3.06261 15.4105 3.27389 15.7737 3.69642 16.5C4.11896 17.2263 4.33023 17.5895 4.61645 17.8074C4.99807 18.098 5.48039 18.2263 5.9573 18.164C6.175 18.1356 6.39574 18.0467 6.7002 17.8871C7.14767 17.6524 7.68279 17.643 8.12111 17.8941C8.55942 18.1453 8.8188 18.6099 8.83771 19.1119C8.85058 19.4534 8.88347 19.6875 8.9675 19.8889C9.15158 20.3299 9.50466 20.6803 9.94908 20.863C10.2823 21 10.7049 21 11.55 21C12.3951 21 12.8176 21 13.1509 20.863C13.5953 20.6803 13.9484 20.3299 14.1325 19.8889C14.2165 19.6875 14.2495 19.4534 14.2623 19.1118C14.2812 18.6099 14.5405 18.1453 14.9788 17.8941C15.4171 17.6429 15.9523 17.6524 16.3997 17.8871C16.7042 18.0467 16.9249 18.1355 17.1426 18.1639C17.6195 18.2263 18.1018 18.098 18.4834 17.8074C18.7697 17.5894 18.9809 17.2263 19.4035 16.4999C19.826 15.7736 20.0373 15.4105 20.0844 15.0555C20.1472 14.5822 20.0179 14.1035 19.7251 13.7248C19.5914 13.5519 19.4036 13.4065 19.112 13.2247C18.6835 12.9575 18.4077 12.5022 18.4077 11.9999C18.4077 11.4976 18.6835 11.0425 19.112 10.7753C19.4037 10.5934 19.5915 10.4481 19.7252 10.2751C20.018 9.89646 20.1472 9.41778 20.0845 8.94447C20.0374 8.58949 19.8261 8.22633 19.4036 7.5C18.981 6.77367 18.7698 6.4105 18.4835 6.19254C18.1019 5.90192 17.6196 5.77366 17.1427 5.83598C16.925 5.86442 16.7042 5.95322 16.3998 6.11292C15.9523 6.34763 15.4172 6.35702 14.9789 6.10586C14.5406 5.85472 14.2812 5.39009 14.2622 4.88815C14.2494 4.54663 14.2165 4.3125 14.1325 4.11117C13.9484 3.67012 13.5953 3.31971 13.1509 3.13702ZM11.55 14.7C13.0525 14.7 14.2705 13.4912 14.2705 12C14.2705 10.5088 13.0525 9.3 11.55 9.3C10.0474 9.3 8.82944 10.5088 8.82944 12C8.82944 13.4912 10.0474 14.7 11.55 14.7Z" fill="#24ACC3"/>
</svg>
