<svg width="62" height="62" viewBox="0 0 62 62" fill="none" xmlns="http://www.w3.org/2000/svg">
<ellipse cx="30.3537" cy="30.3537" rx="30.3537" ry="30.3537" transform="matrix(1 0 0 -1 0.646484 61.3538)" fill="#FDD7D7"/>
<path d="M31.6309 43.0349L30.9478 18.53L45.8256 42.0138L31.6309 43.0349Z" fill="#FF8C8C"/>
<path d="M31.7935 43.1319L31.3361 18.4253L16.9128 41.9091L31.7935 43.1319Z" fill="#FFADAD"/>
<path fill-rule="evenodd" clip-rule="evenodd" d="M32.2293 20.9158C31.7592 20.1619 30.6616 20.1619 30.1915 20.9158L18.3205 39.9529C17.8217 40.7528 18.3968 41.7891 19.3394 41.7891H43.0814C44.024 41.7891 44.5991 40.7528 44.1003 39.9529L32.2293 20.9158ZM28.1426 19.6382C29.558 17.3683 32.8628 17.3683 34.2782 19.6382L46.1492 38.6753C47.6508 41.0835 45.9194 44.2037 43.0814 44.2037H19.3394C16.5014 44.2037 14.77 41.0835 16.2716 38.6753L28.1426 19.6382Z" fill="#FF0404"/>
<path fill-rule="evenodd" clip-rule="evenodd" d="M31.3413 24.4094C32.1393 24.4094 32.7862 25.0563 32.7862 25.8543L32.7862 31.6046C32.7862 32.4026 32.1393 33.0495 31.3413 33.0495C30.5434 33.0495 29.8965 32.4026 29.8965 31.6046L29.8965 25.8543C29.8965 25.0563 30.5434 24.4094 31.3413 24.4094Z" fill="#FF0404"/>
<path fill-rule="evenodd" clip-rule="evenodd" d="M31.4132 37.8041C31.9358 37.8041 32.3595 37.3804 32.3595 36.8578C32.3595 36.3352 31.9358 35.9115 31.4132 35.9115C30.8906 35.9115 30.4669 36.3352 30.4669 36.8578C30.4669 37.3804 30.8906 37.8041 31.4132 37.8041ZM31.4132 39.4138C32.8249 39.4138 33.9692 38.2694 33.9692 36.8578C33.9692 35.4461 32.8249 34.3018 31.4132 34.3018C30.0015 34.3018 28.8572 35.4461 28.8572 36.8578C28.8572 38.2694 30.0015 39.4138 31.4132 39.4138Z" fill="#FF0404"/>
</svg>
