<svg width="24" height="24" viewBox="0 0 24 24" fill="none" xmlns="http://www.w3.org/2000/svg">
<path d="M18.5429 19.1948H5.9064C5.66701 19.1948 5.43743 19.2899 5.26816 19.4592C5.09889 19.6284 5.00379 19.858 5.00379 20.0974C5.00379 20.3368 5.09889 20.5664 5.26816 20.7356C5.43743 20.9049 5.66701 21 5.9064 21H18.5429C18.7823 21 19.0119 20.9049 19.1811 20.7356C19.3504 20.5664 19.4455 20.3368 19.4455 20.0974C19.4455 19.858 19.3504 19.6284 19.1811 19.4592C19.0119 19.2899 18.7823 19.1948 18.5429 19.1948ZM5.9064 17.3896H5.98763L9.7515 17.0466C10.1638 17.0055 10.5494 16.8238 10.8437 16.5321L18.9671 8.40864C19.2824 8.07554 19.4528 7.63105 19.441 7.17255C19.4291 6.71405 19.236 6.27894 18.9039 5.96257L16.4308 3.48943C16.108 3.18624 15.685 3.01228 15.2424 3.00063C14.7997 2.98898 14.3681 3.14045 14.0299 3.42625L5.9064 11.5497C5.61465 11.8439 5.43299 12.2296 5.39191 12.6419L5.00379 16.4057C4.99163 16.5379 5.00879 16.6712 5.05403 16.796C5.09928 16.9208 5.1715 17.0341 5.26555 17.1278C5.34989 17.2115 5.44991 17.2777 5.55988 17.3226C5.66986 17.3675 5.78761 17.3903 5.9064 17.3896ZM15.1762 4.75308L17.6403 7.2172L15.8351 8.97728L13.4161 6.55829L15.1762 4.75308Z" fill="#24ACC3"/>
</svg>
