<svg width="64" height="62" viewBox="0 0 64 62" fill="none" xmlns="http://www.w3.org/2000/svg">
<ellipse cx="30.3537" cy="30.3537" rx="30.3537" ry="30.3537" transform="matrix(1 0 0 -1 1.64648 61.3535)" fill="#E2FEE2"/>
<path d="M19.2467 45.4773H36.676C37.5543 45.4773 38.2663 44.7653 38.2663 43.887C38.2663 43.0063 37.5505 42.2933 36.6698 42.2967L23.2764 42.3483C22.1736 42.3526 21.2735 41.4668 21.2602 40.364L21.0125 19.9003C21 18.867 20.1587 18.0359 19.1253 18.0359C18.083 18.0359 17.238 18.8809 17.238 19.9232V43.4687C17.238 44.578 18.1373 45.4773 19.2467 45.4773Z" fill="#83FF88"/>
<path d="M41.6638 28.5011V18.5316C41.6638 17.4223 40.7645 16.5229 39.6551 16.5229H22.7042C21.5949 16.5229 20.6956 17.4223 20.6956 18.5316V40.4347C20.6956 41.5441 21.5949 42.4434 22.7042 42.4434H40.0041C40.9207 42.4434 41.6638 41.7003 41.6638 40.7837V40.7837" stroke="#00CC08" stroke-width="1.52629"/>
<path d="M20.9899 18.0359H19.2467C18.1373 18.0359 17.238 18.9352 17.238 20.0446V43.4687C17.238 44.578 18.1373 45.4773 19.2467 45.4773H36.2576C37.367 45.4773 38.2663 44.578 38.2663 43.4687V42.2905" stroke="#00CC08" stroke-width="1.52629"/>
<circle cx="41.34" cy="34.7355" r="5.37815" stroke="#00CC08" stroke-width="1.52629"/>
<path d="M38.4092 34.782L40.0608 36.4336L44.0154 32.479" stroke="#00CC08" stroke-width="1.52629" stroke-linecap="round"/>
<line x1="24.7492" y1="22.6202" x2="37.5064" y2="22.6202" stroke="#00CC08" stroke-width="1.52629" stroke-linecap="round"/>
<line x1="24.8427" y1="26.8079" x2="37.5999" y2="26.8079" stroke="#00CC08" stroke-width="1.52629" stroke-linecap="round"/>
<line x1="24.7492" y1="31.0877" x2="32.7607" y2="31.0877" stroke="#00CC08" stroke-width="1.52629" stroke-linecap="round"/>
<line x1="24.9355" y1="35.5078" x2="32.947" y2="35.5079" stroke="#00CC08" stroke-width="1.52629" stroke-linecap="round"/>
</svg>
